<svg width="151" height="49" viewBox="0 0 151 49" fill="none" xmlns="http://www.w3.org/2000/svg">
<path d="M6.89786 20.2245H0V0.766033H6.95487C8.91211 0.766033 10.597 1.15558 12.0095 1.93468C13.422 2.70744 14.5083 3.81908 15.2684 5.2696C16.0348 6.72011 16.4181 8.45566 16.4181 10.4762C16.4181 12.5032 16.0348 14.2451 15.2684 15.7019C14.5083 17.1587 13.4157 18.2767 11.9905 19.0558C10.5717 19.8349 8.87411 20.2245 6.89786 20.2245ZM4.11401 16.6995H6.72684C7.94299 16.6995 8.96595 16.4842 9.79572 16.0534C10.6318 15.6164 11.2589 14.9418 11.677 14.0297C12.1013 13.1112 12.3135 11.9268 12.3135 10.4762C12.3135 9.0384 12.1013 7.86342 11.677 6.95131C11.2589 6.03919 10.635 5.36778 9.80523 4.93705C8.97546 4.50633 7.95249 4.29097 6.73634 4.29097H4.11401V16.6995Z" fill="white"/>
<path d="M31.4846 0.766033H35.5986V13.4026C35.5986 14.8215 35.2597 16.0629 34.5819 17.1271C33.9105 18.1912 32.9699 19.021 31.7601 19.6164C30.5503 20.2055 29.1409 20.5 27.5321 20.5C25.9169 20.5 24.5044 20.2055 23.2945 19.6164C22.0847 19.021 21.1441 18.1912 20.4727 17.1271C19.8013 16.0629 19.4656 14.8215 19.4656 13.4026V0.766033H23.5796V13.0511C23.5796 13.7922 23.7411 14.4509 24.0641 15.0273C24.3935 15.6037 24.8559 16.0566 25.4513 16.386C26.0467 16.7154 26.7403 16.88 27.5321 16.88C28.3302 16.88 29.0238 16.7154 29.6128 16.386C30.2082 16.0566 30.6675 15.6037 30.9905 15.0273C31.3199 14.4509 31.4846 13.7922 31.4846 13.0511V0.766033Z" fill="white"/>
<path d="M55.2589 0.766033V20.2245H51.7055L43.2399 7.97744H43.0974V20.2245H38.9834V0.766033H42.5938L50.9929 13.0036H51.1639V0.766033H55.2589Z" fill="white"/>
<path d="M71.5606 7.05582C71.4276 6.59343 71.2407 6.18488 71 5.83017C70.7593 5.46912 70.4648 5.16508 70.1164 4.91805C69.7743 4.66469 69.3816 4.4715 68.9382 4.33848C68.5012 4.20546 68.0166 4.13896 67.4846 4.13896C66.4901 4.13896 65.616 4.38599 64.8622 4.88005C64.1148 5.37411 63.5321 6.09303 63.114 7.03682C62.696 7.97427 62.4869 9.12074 62.4869 10.4762C62.4869 11.8318 62.6928 12.9846 63.1045 13.9347C63.5162 14.8848 64.099 15.6101 64.8527 16.1105C65.6065 16.6045 66.4964 16.8515 67.5226 16.8515C68.4537 16.8515 69.2486 16.6869 69.9074 16.3575C70.5724 16.0218 71.0792 15.5499 71.4276 14.9418C71.7823 14.3337 71.9596 13.6148 71.9596 12.785L72.7957 12.9086H67.7791V9.81116H75.9216V12.2625C75.9216 13.9727 75.5606 15.4422 74.8385 16.671C74.1164 17.8935 73.1219 18.8373 71.8551 19.5024C70.5883 20.1611 69.1378 20.4905 67.5036 20.4905C65.6793 20.4905 64.0768 20.0883 62.696 19.2838C61.3151 18.4731 60.2383 17.3234 59.4656 15.8349C58.6991 14.3401 58.3159 12.5665 58.3159 10.5143C58.3159 8.93705 58.5439 7.53088 59 6.29572C59.4624 5.05424 60.1085 4.00277 60.9382 3.14133C61.768 2.27989 62.734 1.62431 63.8361 1.17458C64.9382 0.724861 66.1322 0.5 67.4181 0.5C68.5202 0.5 69.5463 0.66152 70.4964 0.984561C71.4466 1.30127 72.289 1.75099 73.0238 2.33373C73.7649 2.91647 74.3698 3.61005 74.8385 4.41449C75.3072 5.21259 75.6081 6.09303 75.7411 7.05582H71.5606Z" fill="white"/>
<path d="M79.0119 20.2245V0.766033H86.8028C88.2344 0.766033 89.4283 0.978227 90.3848 1.40261C91.3412 1.827 92.0602 2.41607 92.5416 3.16983C93.023 3.91726 93.2637 4.7787 93.2637 5.75416C93.2637 6.51425 93.1116 7.1825 92.8076 7.75891C92.5036 8.32898 92.0855 8.7977 91.5534 9.16508C91.0277 9.52613 90.426 9.78266 89.7482 9.93468V10.1247C90.4893 10.1564 91.1829 10.3654 91.829 10.7518C92.4814 11.1382 93.0103 11.6797 93.4157 12.3765C93.8211 13.0669 94.0238 13.8903 94.0238 14.8468C94.0238 15.8793 93.7672 16.8009 93.2542 17.6116C92.7474 18.4161 91.9968 19.0527 91.0024 19.5214C90.0079 19.9901 88.7823 20.2245 87.3254 20.2245H79.0119ZM83.1259 16.861H86.4798C87.6263 16.861 88.4624 16.6425 88.9881 16.2055C89.5139 15.7621 89.7767 15.173 89.7767 14.4382C89.7767 13.8998 89.6469 13.4248 89.3872 13.0131C89.1275 12.6013 88.7569 12.2783 88.2755 12.0439C87.8005 11.8096 87.2336 11.6924 86.5748 11.6924H83.1259V16.861ZM83.1259 8.90855H86.1758C86.7395 8.90855 87.2399 8.81037 87.677 8.61401C88.1203 8.41132 88.4687 8.12629 88.7221 7.75891C88.9818 7.39153 89.1116 6.95131 89.1116 6.43824C89.1116 5.73516 88.8614 5.16825 88.361 4.73753C87.867 4.30681 87.1639 4.09145 86.2518 4.09145H83.1259V8.90855Z" fill="white"/>
<path d="M108.72 0.766033H112.834V13.4026C112.834 14.8215 112.495 16.0629 111.817 17.1271C111.146 18.1912 110.205 19.021 108.995 19.6164C107.785 20.2055 106.376 20.5 104.767 20.5C103.152 20.5 101.74 20.2055 100.53 19.6164C99.3199 19.021 98.3793 18.1912 97.7078 17.1271C97.0364 16.0629 96.7007 14.8215 96.7007 13.4026V0.766033H100.815V13.0511C100.815 13.7922 100.976 14.4509 101.299 15.0273C101.629 15.6037 102.091 16.0566 102.686 16.386C103.282 16.7154 103.975 16.88 104.767 16.88C105.565 16.88 106.259 16.7154 106.848 16.386C107.443 16.0566 107.903 15.6037 108.226 15.0273C108.555 14.4509 108.72 13.7922 108.72 13.0511V0.766033Z" fill="white"/>
<path d="M116.219 20.2245V0.766033H124.009C125.441 0.766033 126.635 0.978227 127.591 1.40261C128.548 1.827 129.267 2.41607 129.748 3.16983C130.23 3.91726 130.47 4.7787 130.47 5.75416C130.47 6.51425 130.318 7.1825 130.014 7.75891C129.71 8.32898 129.292 8.7977 128.76 9.16508C128.234 9.52613 127.633 9.78266 126.955 9.93468V10.1247C127.696 10.1564 128.39 10.3654 129.036 10.7518C129.688 11.1382 130.217 11.6797 130.622 12.3765C131.028 13.0669 131.23 13.8903 131.23 14.8468C131.23 15.8793 130.974 16.8009 130.461 17.6116C129.954 18.4161 129.203 19.0527 128.209 19.5214C127.215 19.9901 125.989 20.2245 124.532 20.2245H116.219ZM120.333 16.861H123.686C124.833 16.861 125.669 16.6425 126.195 16.2055C126.721 15.7621 126.983 15.173 126.983 14.4382C126.983 13.8998 126.854 13.4248 126.594 13.0131C126.334 12.6013 125.964 12.2783 125.482 12.0439C125.007 11.8096 124.44 11.6924 123.781 11.6924H120.333V16.861ZM120.333 8.90855H123.382C123.946 8.90855 124.447 8.81037 124.884 8.61401C125.327 8.41132 125.675 8.12629 125.929 7.75891C126.188 7.39153 126.318 6.95131 126.318 6.43824C126.318 5.73516 126.068 5.16825 125.568 4.73753C125.074 4.30681 124.371 4.09145 123.458 4.09145H120.333V8.90855Z" fill="white"/>
<path d="M145.926 0.766033H150.04V13.4026C150.04 14.8215 149.702 16.0629 149.024 17.1271C148.352 18.1912 147.412 19.021 146.202 19.6164C144.992 20.2055 143.583 20.5 141.974 20.5C140.359 20.5 138.946 20.2055 137.736 19.6164C136.527 19.021 135.586 18.1912 134.914 17.1271C134.243 16.0629 133.907 14.8215 133.907 13.4026V0.766033H138.021V13.0511C138.021 13.7922 138.183 14.4509 138.506 15.0273C138.835 15.6037 139.298 16.0566 139.893 16.386C140.489 16.7154 141.182 16.88 141.974 16.88C142.772 16.88 143.466 16.7154 144.055 16.386C144.65 16.0566 145.109 15.6037 145.432 15.0273C145.762 14.4509 145.926 13.7922 145.926 13.0511V0.766033Z" fill="white"/>
<path d="M0 48.2338V28.7662H7.68061C9.15716 28.7662 10.4151 29.0482 11.4544 29.6122C12.4937 30.1698 13.2858 30.9461 13.8308 31.9411C14.3821 32.9297 14.6578 34.0703 14.6578 35.3631C14.6578 36.6559 14.379 37.7966 13.8213 38.7852C13.2636 39.7738 12.4556 40.5437 11.3973 41.0951C10.3454 41.6464 9.07161 41.9221 7.57604 41.9221H2.68061V38.6236H6.91065C7.70279 38.6236 8.35551 38.4873 8.86882 38.2148C9.38847 37.936 9.77503 37.5526 10.0285 37.0646C10.2883 36.5703 10.4182 36.0032 10.4182 35.3631C10.4182 34.7167 10.2883 34.1527 10.0285 33.6711C9.77503 33.1831 9.38847 32.8061 8.86882 32.5399C8.34918 32.2674 7.69011 32.1312 6.89163 32.1312H4.11597V48.2338H0Z" fill="white"/>
<path d="M35.221 38.5C35.221 40.6229 34.8186 42.429 34.0138 43.9183C33.2153 45.4075 32.1253 46.545 30.7438 47.3308C29.3687 48.1103 27.8224 48.5 26.105 48.5C24.375 48.5 22.8224 48.1071 21.4472 47.3213C20.0721 46.5355 18.9853 45.398 18.1868 43.9087C17.3883 42.4195 16.9891 40.6166 16.9891 38.5C16.9891 36.3771 17.3883 34.571 18.1868 33.0817C18.9853 31.5925 20.0721 30.4582 21.4472 29.6787C22.8224 28.8929 24.375 28.5 26.105 28.5C27.8224 28.5 29.3687 28.8929 30.7438 29.6787C32.1253 30.4582 33.2153 31.5925 34.0138 33.0817C34.8186 34.571 35.221 36.3771 35.221 38.5ZM31.048 38.5C31.048 37.1248 30.842 35.9651 30.4301 35.0209C30.0246 34.0767 29.451 33.3606 28.7096 32.8726C27.9682 32.3847 27.1 32.1407 26.105 32.1407C25.1101 32.1407 24.2419 32.3847 23.5005 32.8726C22.759 33.3606 22.1823 34.0767 21.7704 35.0209C21.3649 35.9651 21.1621 37.1248 21.1621 38.5C21.1621 39.8752 21.3649 41.0349 21.7704 41.9791C22.1823 42.9233 22.759 43.6394 23.5005 44.1274C24.2419 44.6153 25.1101 44.8593 26.105 44.8593C27.1 44.8593 27.9682 44.6153 28.7096 44.1274C29.451 43.6394 30.0246 42.9233 30.4301 41.9791C30.842 41.0349 31.048 39.8752 31.048 38.5Z" fill="white"/>
<path d="M38.27 48.2338V28.7662H45.9506C47.4208 28.7662 48.6755 29.0292 49.7148 29.5551C50.7605 30.0748 51.5558 30.8131 52.1007 31.77C52.6521 32.7205 52.9277 33.839 52.9277 35.1255C52.9277 36.4182 52.6489 37.5304 52.0912 38.462C51.5336 39.3872 50.7256 40.097 49.6673 40.5913C48.6153 41.0856 47.3416 41.3327 45.846 41.3327H40.7034V38.0247H45.1806C45.9664 38.0247 46.6191 37.917 47.1388 37.7015C47.6584 37.4861 48.045 37.1629 48.2985 36.7319C48.5583 36.301 48.6882 35.7655 48.6882 35.1255C48.6882 34.4791 48.5583 33.9341 48.2985 33.4905C48.045 33.0469 47.6553 32.711 47.1293 32.4829C46.6096 32.2484 45.9537 32.1312 45.1616 32.1312H42.3859V48.2338H38.27ZM48.7833 39.3745L53.6217 48.2338H49.0779L44.3441 39.3745H48.7833Z" fill="white"/>
<path d="M55.0951 32.1597V28.7662H71.0836V32.1597H65.1236V48.2338H61.0551V32.1597H55.0951Z" fill="white"/>
<path d="M73.7167 48.2338V28.7662H86.6064V32.1597H77.8327V36.7985H85.7509V40.192H77.8327V48.2338H73.7167Z" fill="white"/>
<path d="M107.265 38.5C107.265 40.6229 106.862 42.429 106.057 43.9183C105.259 45.4075 104.169 46.545 102.788 47.3308C101.412 48.1103 99.8661 48.5 98.1487 48.5C96.4187 48.5 94.8661 48.1071 93.491 47.3213C92.1158 46.5355 91.029 45.398 90.2305 43.9087C89.432 42.4195 89.0328 40.6166 89.0328 38.5C89.0328 36.3771 89.432 34.571 90.2305 33.0817C91.029 31.5925 92.1158 30.4582 93.491 29.6787C94.8661 28.8929 96.4187 28.5 98.1487 28.5C99.8661 28.5 101.412 28.8929 102.788 29.6787C104.169 30.4582 105.259 31.5925 106.057 33.0817C106.862 34.571 107.265 36.3771 107.265 38.5ZM103.092 38.5C103.092 37.1248 102.886 35.9651 102.474 35.0209C102.068 34.0767 101.495 33.3606 100.753 32.8726C100.012 32.3847 99.1437 32.1407 98.1487 32.1407C97.1538 32.1407 96.2856 32.3847 95.5442 32.8726C94.8027 33.3606 94.2261 34.0767 93.8141 35.0209C93.4086 35.9651 93.2058 37.1248 93.2058 38.5C93.2058 39.8752 93.4086 41.0349 93.8141 41.9791C94.2261 42.9233 94.8027 43.6394 95.5442 44.1274C96.2856 44.6153 97.1538 44.8593 98.1487 44.8593C99.1437 44.8593 100.012 44.6153 100.753 44.1274C101.495 43.6394 102.068 42.9233 102.474 41.9791C102.886 41.0349 103.092 39.8752 103.092 38.5Z" fill="white"/>
<path d="M110.314 48.2338V28.7662H114.43V44.8403H122.776V48.2338H110.314Z" fill="white"/>
<path d="M129.617 28.7662V48.2338H125.501V28.7662H129.617Z" fill="white"/>
<path d="M150.894 38.5C150.894 40.6229 150.491 42.429 149.686 43.9183C148.888 45.4075 147.798 46.545 146.416 47.3308C145.041 48.1103 143.495 48.5 141.778 48.5C140.048 48.5 138.495 48.1071 137.12 47.3213C135.745 46.5355 134.658 45.398 133.859 43.9087C133.061 42.4195 132.662 40.6166 132.662 38.5C132.662 36.3771 133.061 34.571 133.859 33.0817C134.658 31.5925 135.745 30.4582 137.12 29.6787C138.495 28.8929 140.048 28.5 141.778 28.5C143.495 28.5 145.041 28.8929 146.416 29.6787C147.798 30.4582 148.888 31.5925 149.686 33.0817C150.491 34.571 150.894 36.3771 150.894 38.5ZM146.721 38.5C146.721 37.1248 146.515 35.9651 146.103 35.0209C145.697 34.0767 145.124 33.3606 144.382 32.8726C143.641 32.3847 142.772 32.1407 141.778 32.1407C140.783 32.1407 139.914 32.3847 139.173 32.8726C138.432 33.3606 137.855 34.0767 137.443 35.0209C137.037 35.9651 136.835 37.1248 136.835 38.5C136.835 39.8752 137.037 41.0349 137.443 41.9791C137.855 42.9233 138.432 43.6394 139.173 44.1274C139.914 44.6153 140.783 44.8593 141.778 44.8593C142.772 44.8593 143.641 44.6153 144.382 44.1274C145.124 43.6394 145.697 42.9233 146.103 41.9791C146.515 41.0349 146.721 39.8752 146.721 38.5Z" fill="white"/>
</svg>
