<svg width="1840" height="246" viewBox="0 0 1840 246" fill="none" xmlns="http://www.w3.org/2000/svg">
<path d="M81.0897 242.381H0V3.2691H82.7255C106.484 3.2691 126.893 8.05601 143.952 17.6298C161.089 27.1258 174.253 40.7859 183.445 58.6103C192.637 76.4347 197.233 97.7618 197.233 122.591C197.233 147.499 192.598 168.904 183.328 186.806C174.136 204.708 160.855 218.446 143.484 228.02C126.191 237.594 105.393 242.381 81.0897 242.381ZM43.3491 204.903H78.9865C95.6562 204.903 109.561 201.867 120.7 195.796C131.839 189.647 140.213 180.501 145.821 168.359C151.43 156.139 154.234 140.883 154.234 122.591C154.234 104.3 151.43 89.122 145.821 77.0574C140.213 64.9151 131.917 55.8472 120.933 49.8538C110.028 43.7826 96.4741 40.747 80.2718 40.747H43.3491V204.903Z" fill="white"/>
<path d="M389.266 3.2691H432.615V159.486C432.615 176.609 428.564 191.671 420.463 204.669C412.44 217.668 401.145 227.825 386.578 235.142C372.012 242.381 354.991 246 335.517 246C315.965 246 298.906 242.381 284.34 235.142C269.773 227.825 258.478 217.668 250.455 204.669C242.432 191.671 238.42 176.609 238.42 159.486V3.2691H281.769V155.866C281.769 165.829 283.95 174.702 288.312 182.486C292.752 190.27 298.984 196.38 307.007 200.816C315.031 205.175 324.534 207.355 335.517 207.355C346.501 207.355 356.004 205.175 364.027 200.816C372.128 196.38 378.36 190.27 382.722 182.486C387.085 174.702 389.266 165.829 389.266 155.866V3.2691Z" fill="white"/>
<path d="M676.38 3.2691V242.381H637.822L525.067 79.5093H523.081V242.381H479.732V3.2691H518.524L631.162 166.257H633.265V3.2691H676.38Z" fill="white"/>
<path d="M883.924 79.626C881.977 73.3213 879.29 67.6782 875.862 62.6967C872.513 57.6374 868.462 53.3175 863.71 49.7371C859.037 46.1566 853.662 43.4713 847.586 41.6811C841.51 39.813 834.889 38.879 827.722 38.879C814.87 38.879 803.419 42.1092 793.37 48.5695C783.322 55.0299 775.415 64.5259 769.651 77.0574C763.965 89.5112 761.121 104.689 761.121 122.591C761.121 140.649 763.965 155.944 769.651 168.476C775.337 181.007 783.244 190.542 793.37 197.08C803.497 203.541 815.259 206.771 828.657 206.771C840.809 206.771 851.325 204.436 860.205 199.766C869.163 195.095 876.057 188.479 880.886 179.917C885.716 171.278 888.131 161.159 888.131 149.561L897.946 151.079H832.98V117.221H930.078V145.942C930.078 166.413 925.716 184.121 916.991 199.065C908.267 214.01 896.271 225.529 881.003 233.624C865.736 241.641 848.209 245.65 828.424 245.65C806.379 245.65 787.022 240.707 770.352 230.822C753.76 220.859 740.791 206.732 731.443 188.44C722.173 170.071 717.539 148.277 717.539 123.058C717.539 103.755 720.265 86.5145 725.718 71.3365C731.248 56.1585 738.96 43.2767 748.853 32.691C758.746 22.0275 770.352 13.9326 783.672 8.40627C796.993 2.80209 811.481 0 827.138 0C840.381 0 852.727 1.9459 864.178 5.83769C875.628 9.65164 885.794 15.1001 894.674 22.1832C903.632 29.2663 910.993 37.6725 916.758 47.402C922.522 57.1315 926.3 67.8728 928.091 79.626H883.924Z" fill="white"/>
<path d="M971.995 242.381V3.2691H1063.6C1080.89 3.2691 1095.27 5.99336 1106.72 11.4419C1118.25 16.8125 1126.85 24.168 1132.54 33.5083C1138.3 42.8486 1141.19 53.4343 1141.19 65.2653C1141.19 74.9948 1139.32 83.3232 1135.58 90.2506C1131.84 97.1001 1126.81 102.665 1120.5 106.946C1114.19 111.227 1107.15 114.302 1099.36 116.17V118.505C1107.85 118.972 1115.99 121.579 1123.78 126.327C1131.64 130.998 1138.07 137.614 1143.06 146.176C1148.04 154.738 1150.53 165.09 1150.53 177.232C1150.53 189.608 1147.53 200.738 1141.54 210.624C1135.54 220.431 1126.5 228.176 1114.43 233.858C1102.35 239.54 1087.16 242.381 1068.86 242.381H971.995ZM1015.34 206.187H1061.97C1077.7 206.187 1089.03 203.19 1095.97 197.197C1102.98 191.126 1106.48 183.342 1106.48 173.846C1106.48 166.763 1104.73 160.381 1101.22 154.699C1097.72 148.939 1092.73 144.424 1086.27 141.155C1079.8 137.808 1072.09 136.135 1063.13 136.135H1015.34V206.187ZM1015.34 104.962H1058.23C1065.7 104.962 1072.44 103.599 1078.44 100.875C1084.44 98.0731 1089.15 94.1424 1092.58 89.0831C1096.08 83.9459 1097.84 77.8747 1097.84 70.8695C1097.84 61.607 1094.56 53.9791 1088.02 47.9858C1081.56 41.9924 1071.94 38.9957 1059.16 38.9957H1015.34V104.962Z" fill="white"/>
<path d="M1339.09 3.2691H1382.44V159.486C1382.44 176.609 1378.39 191.671 1370.29 204.669C1362.26 217.668 1350.97 227.825 1336.4 235.142C1321.84 242.381 1304.82 246 1285.34 246C1265.79 246 1248.73 242.381 1234.16 235.142C1219.6 227.825 1208.3 217.668 1200.28 204.669C1192.26 191.671 1188.24 176.609 1188.24 159.486V3.2691H1231.59V155.866C1231.59 165.829 1233.77 174.702 1238.14 182.486C1242.58 190.27 1248.81 196.38 1256.83 200.816C1264.86 205.175 1274.36 207.355 1285.34 207.355C1296.33 207.355 1305.83 205.175 1313.85 200.816C1321.95 196.38 1328.18 190.27 1332.55 182.486C1336.91 174.702 1339.09 165.829 1339.09 155.866V3.2691Z" fill="white"/>
<path d="M1429.56 242.381V3.2691H1521.16C1538.45 3.2691 1552.83 5.99336 1564.28 11.4419C1575.81 16.8125 1584.41 24.168 1590.1 33.5083C1595.86 42.8486 1598.75 53.4343 1598.75 65.2653C1598.75 74.9948 1596.88 83.3232 1593.14 90.2506C1589.4 97.1001 1584.37 102.665 1578.06 106.946C1571.76 111.227 1564.71 114.302 1556.92 116.17V118.505C1565.41 118.972 1573.55 121.579 1581.34 126.327C1589.2 130.998 1595.63 137.614 1600.62 146.176C1605.6 154.738 1608.09 165.09 1608.09 177.232C1608.09 189.608 1605.09 200.738 1599.1 210.624C1593.1 220.431 1584.06 228.176 1571.99 233.858C1559.92 239.54 1544.73 242.381 1526.42 242.381H1429.56ZM1472.91 206.187H1519.53C1535.26 206.187 1546.6 203.19 1553.53 197.197C1560.54 191.126 1564.04 183.342 1564.04 173.846C1564.04 166.763 1562.29 160.381 1558.79 154.699C1555.28 148.939 1550.3 144.424 1543.83 141.155C1537.36 137.808 1529.65 136.135 1520.69 136.135H1472.91V206.187ZM1472.91 104.962H1515.79C1523.27 104.962 1530 103.599 1536 100.875C1542 98.0731 1546.71 94.1424 1550.14 89.0831C1553.64 83.9459 1555.4 77.8747 1555.4 70.8695C1555.4 61.607 1552.13 53.9791 1545.58 47.9858C1539.12 41.9924 1529.5 38.9957 1516.72 38.9957H1472.91V104.962Z" fill="white"/>
<path d="M1796.65 3.2691H1840V159.486C1840 176.609 1835.95 191.671 1827.85 204.669C1819.82 217.668 1808.53 227.825 1793.96 235.142C1779.4 242.381 1762.38 246 1742.9 246C1723.35 246 1706.29 242.381 1691.72 235.142C1677.16 227.825 1665.86 217.668 1657.84 204.669C1649.82 191.671 1645.81 176.609 1645.81 159.486V3.2691H1689.15V155.866C1689.15 165.829 1691.34 174.702 1695.7 182.486C1700.14 190.27 1706.37 196.38 1714.39 200.816C1722.42 205.175 1731.92 207.355 1742.9 207.355C1753.89 207.355 1763.39 205.175 1771.41 200.816C1779.51 196.38 1785.75 190.27 1790.11 182.486C1794.47 174.702 1796.65 165.829 1796.65 155.866V3.2691Z" fill="white"/>
</svg>
